<?xml version="1.0" standalone="no"?><!DOCTYPE svg PUBLIC "-//W3C//DTD SVG 1.1//EN" "http://www.w3.org/Graphics/SVG/1.1/DTD/svg11.dtd"><svg t="1747180963070" class="icon" viewBox="0 0 1024 1024" version="1.1" xmlns="http://www.w3.org/2000/svg" p-id="5862" xmlns:xlink="http://www.w3.org/1999/xlink" width="32" height="32"><path d="M828.135946 986.681895l-18.883041-338.994785a58.589025 58.589025 0 0 0-44.197755-53.557281l-81.119881-20.418963a537.076727 537.076727 0 0 1-41.733881-12.327374l-35.886177-17.695101-7.219634-3.559819a33.534297 33.534297 0 0 1-18.70305-30.074473v-11.599411a131.181338 131.181338 0 0 1-48.937515 9.43952h-32.178366a131.061345 131.061345 0 0 1-55.681172-12.355372v14.515263a33.534297 33.534297 0 0 1-18.703051 30.074473l-5.31573 2.619867-35.710186 17.607105c-15.119232 5.355728-30.482452 9.999492-46.041662 13.911294l-78.891994 19.858992a58.589025 58.589025 0 0 0-44.193756 53.55728l-18.883041 338.998785a25.850687 25.850687 0 0 0 25.80669 27.286614h580.654513a25.854687 25.854687 0 0 0 25.818689-27.286614z" fill="#1B87C9" p-id="5863"></path><path d="M500.024608 1013.968509h32.822333v-328.335326l30.486452-30.486452-26.238667-21.110928-37.070118 39.617988z" fill="#30A9E5" p-id="5864"></path><path d="M713.205783 1018.412284a9.999492 9.999492 0 0 1-9.999493-9.999492v-219.56885a9.999492 9.999492 0 1 1 19.998985 0v219.56885a9.999492 9.999492 0 0 1-9.999492 9.999492zM310.794217 1018.412284a9.999492 9.999492 0 0 1-9.999492-9.999492v-219.56885a9.999492 9.999492 0 1 1 19.998985 0v219.56885a9.999492 9.999492 0 0 1-9.999493 9.999492z" fill="#231F20" p-id="5865"></path><path d="M802.325257 1023.968002H221.670743a36.010171 36.010171 0 0 1-26.042677-11.211431 36.006172 36.006172 0 0 1-9.751505-26.626648l18.883041-338.998785a68.280533 68.280533 0 0 1 51.737373-62.696816l78.891994-19.854992a504.610375 504.610375 0 0 0 44.589735-13.447317l40.493944-19.966986a23.386812 23.386812 0 0 0 13.127333-21.102929v-14.515262a9.999492 9.999492 0 0 1 14.235277-9.055541 120.52188 120.52188 0 0 0 51.445388 11.415421h32.178366c15.575209 0 30.786437-2.931851 45.217704-8.719558a9.999492 9.999492 0 0 1 13.723303 9.283529v11.599411a23.378813 23.378813 0 0 0 13.123333 21.102928l42.517841 20.962936c13.223329 4.479773 26.79064 8.479569 40.341952 11.891396l81.11588 20.414963a68.288532 68.288532 0 0 1 51.741373 62.696816l18.883041 338.994786c0.547972 9.795503-3.007847 19.49901-9.751505 26.626648s-16.235176 11.207431-26.046677 11.207431z m-348.726291-513.621918a43.257803 43.257803 0 0 1-24.278767 38.750032l-41.025917 20.230973a9.551515 9.551515 0 0 1-1.083945 0.455977 525.013339 525.013339 0 0 1-46.933617 14.183279l-78.891993 19.854992a48.381543 48.381543 0 0 0-36.654139 44.417745l-18.883041 338.994785a15.699203 15.699203 0 0 0 4.311781 11.771402 15.699203 15.699203 0 0 0 11.511415 4.955749h580.654514c4.403776 0 8.491569-1.759911 11.515415-4.959749s4.555769-7.379625 4.311781-11.771402l-18.883041-338.994785a48.369544 48.369544 0 0 0-36.654139-44.413745l-81.11588-20.414963a549.944073 549.944073 0 0 1-42.517841-12.559362 10.123486 10.123486 0 0 1-1.199939-0.499975l-43.101812-21.250921a43.233805 43.233805 0 0 1-24.21877-36.670138 140.972841 140.972841 0 0 1-39.002019 5.467723h-32.178366a140.472867 140.472867 0 0 1-45.68168-7.547617z" fill="#231F20" p-id="5866"></path><path d="M532.846941 1023.968002h-32.822333a9.999492 9.999492 0 0 1-9.999492-9.999493v-340.314718c0-2.535871 0.963951-4.979747 2.695863-6.831653l37.070118-39.617988a9.995492 9.995492 0 0 1 13.57131-0.959951l26.242668 21.110927a9.995492 9.995492 0 0 1 0.799959 14.859246l-27.5586 27.5586v324.195537a9.999492 9.999492 0 0 1-9.999493 9.999493z m-22.822841-19.998985h12.823349v-318.335834c0-2.651865 1.055946-5.195736 2.927851-7.071641l22.606852-22.606852-10.331475-8.311578-28.030576 29.962478v326.363427z" fill="#231F20" p-id="5867"></path><path d="M599.099577 540.128572a33.534297 33.534297 0 0 1-18.70305-30.074473v-11.599411a131.181338 131.181338 0 0 1-48.937515 9.43952h-32.178366a131.061345 131.061345 0 0 1-55.681173-12.355372v14.515263a33.534297 33.534297 0 0 1-18.70305 30.074473l-2.507872 1.235937 65.656665 92.667294 25.898685 24.738744 23.146825-24.738744 65.37668-92.243316-3.367829-1.659915z" fill="#F9D8B7" p-id="5868"></path><path d="M654.724752 565.35929c-4.179788-1.307934-8.375575-2.56787-12.519364-3.975798l-35.886178-17.695101-3.847804-1.895904-65.37668 92.243316 46.765625 37.622089 70.864401-106.298602zM370.2192 564.955311l71.136387 106.702581 46.689629-37.622089-65.656665-92.667294-2.807858 1.383929-35.710186 17.607106c-4.52377 1.603919-9.079539 3.119842-13.651307 4.595767z" fill="#30A9E5" p-id="5869"></path><path d="M583.860351 681.657385c-2.263885 0-4.479773-0.767961-6.267682-2.207888l-46.765625-37.62209a10.007492 10.007492 0 0 1-1.891904-13.57531l65.37668-92.243316a9.999492 9.999492 0 0 1 12.579361-3.187838l39.150012 19.29902c2.843856 0.955951 5.70771 1.843906 8.575565 2.731861l3.099842 0.963951a9.999492 9.999492 0 0 1 5.33173 15.091234l-70.864402 106.298602a9.991493 9.991493 0 0 1-8.323577 4.451774z m-33.170316-49.517486l30.91443 24.870737 57.429084-86.147625-0.055997-0.015999a9.8515 9.8515 0 0 1-1.199939-0.499975l-32.086371-15.823196-55.001207 77.616058zM441.355587 681.657385a9.999492 9.999492 0 0 1-8.319577-4.451774l-71.136388-106.702582a9.999492 9.999492 0 0 1 5.243734-15.063235c4.295782-1.38793 8.579564-2.811857 12.835348-4.311781l37.986071-18.731049a10.003492 10.003492 0 0 1 12.583361 3.187838l65.656666 92.667295a9.999492 9.999492 0 0 1-1.887904 13.567311l-46.689629 37.622089a9.979493 9.979493 0 0 1-6.271682 2.215888z m-55.565178-111.374345L443.603473 657.006636l30.850434-24.858737-55.293193-78.040037-30.866432 15.219227a9.551515 9.551515 0 0 1-1.083945 0.455977l-1.419928 0.499974z" fill="#231F20" p-id="5870"></path><path d="M663.056329 244.891564a59.372985 59.372985 0 0 1 28.55055 12.083386c36.650139-124.337686-11.355423-165.855578-32.774335-176.023061-6.159687-2.923852-11.23143-7.67561-14.935242-13.403319-12.131384-18.771047-46.313648-57.569077-121.577826-57.569077-99.278958 0-142.96074 63.536774-182.670724 75.452169-23.170823 6.951647-34.174265-0.967951-39.318003-8.771555-4.13579-6.271682-12.923344-7.323628-18.787046-2.631866-42.169859 33.742287-51.737373 152.712245 34.282259 174.219153 75.276177 18.819044 125.273638-31.742388 146.292571-45.509689 2.639866-1.727912 5.943698 0.911954 4.835754 3.867803l-4.891751 13.043338a6.29968 6.29968 0 0 0 6.243683 8.483569c48.905517-2.675864 83.459762-25.350713 97.983024-36.82613a5.095741 5.095741 0 0 1 8.231582 3.407827c6.211685 52.465336 62.800811 72.560315 76.068137 76.572112 1.003949 0.303985 7.939597 2.463875 12.467367 3.74381v-30.13847z" fill="#E8B16D" p-id="5871"></path><path d="M663.056329 244.891564v117.902013c29.050525-3.963799 51.457387-28.810537 51.457387-58.949007 0-30.142469-22.406862-54.989208-51.457387-58.953006zM574.520825 194.714112a5.095741 5.095741 0 0 0-8.231582-3.407827c-14.527262 11.475417-49.077508 34.150266-97.987024 36.82613-4.51977 0.247987-7.835602-4.243784-6.243683-8.483569l4.891752-13.043338c1.107944-2.94785-2.183889-5.599716-4.819756-3.875803C446.391332 213.029182 414.392957 243.98761 367.691328 250.975255v125.329636c0 72.676309 58.917008 131.593318 131.593318 131.593317h32.178366c72.676309 0 131.593318-58.917008 131.593317-131.593317v-101.274857c-4.52377-1.275935-11.463418-3.439825-12.467367-3.74381-13.267326-4.011796-69.856453-24.106776-76.068137-76.572112zM347.188369 252.347185c-17.791097 10.283478-29.782488 29.458504-29.782487 51.493386 0 29.73049 21.806893 54.305242 50.285446 58.773015V250.975255a128.177491 128.177491 0 0 1-20.502959 1.37193z" fill="#F9D8B7" p-id="5872"></path><path d="M663.056329 285.029526a9.999492 9.999492 0 0 1-2.715862-0.375981c-3.807807-1.075945-9.283529-2.75986-11.663408-3.495823l-0.98395-0.303984c-7.203634-2.17589-25.886685-8.643561-43.669782-21.602903-20.318968-14.807248-33.350306-33.762286-38.058067-55.205197-18.775047 13.411319-52.129353 31.606395-97.115069 34.07027a16.115182 16.115182 0 0 1-14.027287-6.635663 16.271174 16.271174 0 0 1-3.139841-8.643561c-27.202619 20.29097-73.860249 51.217399-138.292977 35.110217-36.802131-9.199533-61.748864-35.698187-70.244433-74.616211-9.523516-43.625785 4.591767-95.071172 32.142368-117.110053a23.326815 23.326815 0 0 1 18.163077-4.819755 22.418862 22.418862 0 0 1 15.223227 9.755505c4.795756 7.271631 14.247277 8.85555 28.098573 4.699761 11.299426-3.391828 23.966783-12.227379 38.638038-22.462859C407.725295 30.854433 451.979048-0.019999 522.315476-0.019999c81.063883 0 117.902013 43.457793 129.9774 62.140844 2.839856 4.395777 6.583666 7.783605 10.82345 9.799503 8.907548 4.227785 30.950428 17.635104 43.245804 50.749423 13.043338 35.114217 11.299426 81.251874-5.167738 137.133036a9.999492 9.999492 0 0 1-15.7512 5.051743 49.81747 49.81747 0 0 0-12.39537-7.08764v17.263124a9.999492 9.999492 0 0 1-9.991493 9.999492z m-93.583248-104.826677a15.119232 15.119232 0 0 1 14.97924 13.331323c5.455723 46.097659 57.1171 64.512724 68.600516 68.048545v-16.695153a9.987493 9.987493 0 0 1 11.347424-9.907497c7.351627 1.003949 14.491264 3.191838 21.130927 6.455673 30.034475-115.698125-20.266971-146.356568-30.998426-151.452309-7.599614-3.611817-14.18728-9.491518-19.043033-17.011137-30.91443-47.829571-89.451458-52.997309-113.182252-52.997308-64.048748 0-103.646737 27.622597-135.461122 49.81747-16.079183 11.21543-29.966478 20.902939-44.333748 25.214719-30.554448 9.167534-44.785726-4.115791-50.541434-12.843347a2.319882 2.319882 0 0 0-1.647916-1.011949 3.283833 3.283833 0 0 0-2.547871 0.683965c-21.742896 17.399116-32.998324 61.016901-25.094725 97.231063 4.799756 21.998883 18.339069 50.173452 55.557178 59.480979 59.796963 14.947241 101.850828-16.863144 126.977552-35.874178 4.347779-3.291833 8.107588-6.135688 11.415421-8.299579a13.231328 13.231328 0 0 1 15.55121 0.735963 13.227328 13.227328 0 0 1 4.123791 15.007238l-2.855855 7.619613c43.945768-3.979798 75.012191-25.090726 86.6356-34.274259a15.147231 15.147231 0 0 1 9.387523-3.259835z" fill="#231F20" p-id="5873"></path><path d="M663.056329 372.793069a9.999492 9.999492 0 0 1-9.999492-9.999492V244.891564a9.987493 9.987493 0 0 1 11.347424-9.907497c34.26626 4.675763 60.104948 34.278259 60.104948 68.860503s-25.838688 64.180741-60.104948 68.856504a10.175483 10.175483 0 0 1-1.347932 0.091995z m9.999492-115.034158v92.16332c18.543058-7.303629 31.458403-25.446708 31.458403-46.08166s-12.919344-38.778031-31.458403-46.08166z" fill="#231F20" p-id="5874"></path><path d="M531.459012 517.893701h-32.178366c-78.076035 0-141.59281-63.516775-141.59281-141.59281V250.975255c0-4.951749 3.623816-9.155535 8.519568-9.891498 35.198213-5.267732 61.568873-25.21472 79.011987-38.414049 4.355779-3.295833 8.119588-6.143688 11.43142-8.311578a13.215329 13.215329 0 0 1 15.531211 0.739963 13.235328 13.235328 0 0 1 4.12779 15.019237l-2.855855 7.615613c43.945768-3.979798 75.012191-25.090726 86.635601-34.274259a15.127232 15.127232 0 0 1 15.135231-2.111893 15.131232 15.131232 0 0 1 9.227532 12.191381v0.004c5.527719 46.697629 58.473031 64.9847 69.032494 68.176538l1.079945 0.331983c2.283884 0.703964 7.551617 2.327882 11.207431 3.355829a9.999492 9.999492 0 0 1 7.28363 9.623512V376.300891c0 78.076035-63.520774 141.59281-141.596809 141.59281zM377.686821 259.314832v116.990059c0 67.048595 54.54523 121.593825 121.593825 121.593825h32.178366c67.048595 0 121.593825-54.54923 121.593825-121.593825V282.501654l-4.379777-1.339932-0.98395-0.303984c-12.047388-3.639815-70.196435-23.842789-81.73585-76.8041-18.779046 13.407319-52.125353 31.602395-97.107069 34.06227a16.215177 16.215177 0 0 1-14.027287-6.635663 16.267174 16.267174 0 0 1-3.135841-8.643561c-16.811146 12.523364-41.817876 29.602497-73.996242 36.478148z m186.906508-63.42078v0z" fill="#231F20" p-id="5875"></path><path d="M367.687328 372.613078c-0.515974 0-1.031948-0.039998-1.547921-0.119994-34.034272-5.335729-58.737017-34.210263-58.737017-68.648514 0-24.706745 13.327323-47.753575 34.778234-60.152945a10.23948 10.23948 0 0 1 5.11974-1.339932 119.825915 119.825915 0 0 0 18.90304-1.263936 9.987493 9.987493 0 0 1 11.483417 9.887498v111.638331a10.011492 10.011492 0 0 1-9.999493 9.999492z m-17.691101-110.2624c-13.999289 9.091538-22.590853 24.758743-22.590853 41.489893 0 20.426963 12.20338 38.102065 30.286462 45.641682V262.074692a136.433072 136.433072 0 0 1-7.695609 0.275986zM512.563971 433.082008a52.917313 52.917313 0 0 1-43.89777-23.334815 9.999492 9.999492 0 0 1 16.571158-11.195432 32.958326 32.958326 0 0 0 54.657224 0 9.995492 9.995492 0 1 1 16.571159 11.195432 52.945311 52.945311 0 0 1-43.901771 23.334815zM586.24823 295.868975c-1.58392 0-3.195838-0.375981-4.691762-1.17594-2.483874-1.323933-8.199584-2.659865-15.35522-2.659865-7.151637 0-12.867347 1.335932-15.35922 2.659865a9.999492 9.999492 0 1 1-9.391524-17.655103c5.975697-3.179839 14.999238-5.003746 24.750744-5.003746 9.755505 0 18.779046 1.823907 24.750743 5.003746a9.995492 9.995492 0 0 1 4.12779 13.523313 9.979493 9.979493 0 0 1-8.831551 5.30773zM478.465703 295.868975c-1.58392 0-3.191838-0.375981-4.687762-1.17194-2.487874-1.323933-8.199584-2.659865-15.35522-2.659865s-12.867347 1.335932-15.355221 2.659865a9.999492 9.999492 0 0 1-9.391523-17.655104c5.975697-3.179839 14.999238-5.003746 24.750744-5.003745s18.775047 1.823907 24.750743 5.003745a9.999492 9.999492 0 0 1-4.711761 18.827044zM460.01464 334.663005a11.999391 11.999391 0 0 1-11.999391-11.99939v-2.191889a11.999391 11.999391 0 1 1 23.998782 0v2.191889a11.999391 11.999391 0 0 1-11.999391 11.99939zM565.109303 336.34292a11.999391 11.999391 0 0 1-11.999391-11.999391v-2.191888a11.999391 11.999391 0 1 1 23.998782 0v2.191888a11.999391 11.999391 0 0 1-11.999391 11.999391zM513.943901 668.774039a10.015491 10.015491 0 0 1-6.907649-2.76786l-25.898685-24.738743a10.03949 10.03949 0 0 1-1.251936-1.447927l-65.656666-92.667294a10.007492 10.007492 0 0 1 3.73181-14.747251l2.507873-1.239937a23.394812 23.394812 0 0 0 13.131333-21.106928v-14.515263a9.999492 9.999492 0 0 1 14.235277-9.05554 120.52188 120.52188 0 0 0 51.445388 11.41542h32.178366c15.575209 0 30.786437-2.931851 45.217704-8.719557a9.999492 9.999492 0 0 1 13.723303 9.283528v11.599411a23.378813 23.378813 0 0 0 13.123333 21.102929h0.004l3.367829 1.663915a9.999492 9.999492 0 0 1 3.731811 14.747251l-65.37668 92.247316c-0.259987 0.367981-0.551972 0.719963-0.859957 1.047947l-23.146824 24.738743a10.007492 10.007492 0 0 1-7.019644 3.16384l-0.279986-0.004z m-18.291071-41.305903l17.895091 17.095132 15.779199-16.863143 58.613024-82.703801a43.177807 43.177807 0 0 1-17.479113-32.570346 140.972841 140.972841 0 0 1-39.002019 5.467723h-32.178366c-15.723202 0-31.026424-2.531871-45.68168-7.547617a43.205806 43.205806 0 0 1-16.787148 34.078269l58.841012 83.043783z" fill="#231F20" p-id="5876"></path></svg>