<?xml version="1.0" standalone="no"?><!DOCTYPE svg PUBLIC "-//W3C//DTD SVG 1.1//EN" "http://www.w3.org/Graphics/SVG/1.1/DTD/svg11.dtd"><svg t="1747180920815" class="icon" viewBox="0 0 1024 1024" version="1.1" xmlns="http://www.w3.org/2000/svg" p-id="2567" xmlns:xlink="http://www.w3.org/1999/xlink" width="32" height="32"><path d="M1006.426 32.749H498.42c-9.586 0-15.976-6.39-15.976-15.976S488.834 0.797 498.42 0.797h509.604c9.586 0 15.976 6.39 15.976 15.976s-7.988 15.976-17.574 15.976z" fill="#193651" p-id="2568"></path><path d="M400.973 705.297a311.514 311.514 0 1 0 623.027 0 311.514 311.514 0 1 0-623.027 0z" fill="#E1E6E9" p-id="2569"></path><path d="M447.3 305.923v356.243H15.976V305.923c0-28.756 22.366-51.12 51.12-51.12h6.39c27.157 62.304 89.459 105.435 161.348 105.435 47.926 0 92.655-19.17 124.605-52.717 15.976-15.976 28.756-33.548 36.742-52.718 28.756-0.002 51.12 22.364 51.12 51.12z" fill="#FFFFFF" p-id="2570"></path><path d="M447.3 678.14H15.976C6.39 678.14 0 671.75 0 662.164V305.923c0-36.742 30.352-67.096 67.095-67.096h6.39c6.39 0 12.78 3.196 14.378 9.586 25.56 57.51 83.07 95.85 146.971 95.85 43.132 0 83.07-15.977 113.423-47.926 14.378-14.378 25.56-30.352 33.548-47.926 3.196-6.39 7.988-9.586 14.378-9.586 36.742 0 67.095 30.352 67.095 67.096v357.84c-0.002 7.989-6.392 14.379-15.978 14.379zM31.95 646.19h399.375V305.923c0-15.976-11.182-28.756-25.56-33.548-9.586 17.572-20.768 33.548-35.146 47.926-36.742 36.741-84.667 55.913-135.787 55.913-71.887 0-138.983-41.536-170.933-105.435-17.571 1.598-31.95 15.976-31.95 35.146V646.19z" fill="#193651" p-id="2571"></path><path d="M79.875 598.264V366.626c43.132 35.146 97.448 55.914 154.957 55.914 54.316 0 107.033-17.572 148.567-51.12v226.846l-303.524-0.002z" fill="#4FBF9F" p-id="2572"></path><path d="M637.403 473.66h31.95v31.949h-31.95z m86.265 0h31.95v31.949h-31.95z m87.864 0h31.95v31.949h-31.95zM129.397 499.22h31.95v31.949h-31.95z m86.265 0h31.95v31.949h-31.95z m86.266 0h31.95v31.949h-31.95z" fill="#193651" p-id="2573"></path><path d="M348.255 104.636v76.68c0 30.351-12.78 59.107-33.547 79.875-20.768 20.768-47.926 33.548-79.876 33.548-62.303 0-113.423-51.12-113.423-113.423v-75.082h217.26c4.794 0 6.392 0 9.586-1.598z" fill="#FFFFFF" p-id="2574"></path><path d="M234.832 312.313c-71.887 0-129.397-57.51-129.397-129.397v-76.682c0-9.586 6.39-15.976 15.976-15.976h222.052c4.792-1.598 9.586 0 12.78 3.196 3.196 3.196 6.39 7.988 6.39 12.78v76.68c0 35.145-12.78 67.095-38.34 91.057-22.365 23.964-54.315 38.342-89.46 38.342z m-95.85-190.105v60.706c0 54.315 43.133 97.447 97.448 97.447 25.56 0 51.12-9.586 68.694-28.756 19.17-19.17 28.755-43.132 28.755-68.694v-60.703H138.983z" fill="#193651" p-id="2575"></path><path d="M186.909 182.914c0 27.157 22.365 47.925 49.521 47.925 12.78 0 25.56-4.792 35.146-14.378 9.586-9.586 14.378-20.768 14.378-33.547h-99.045z" fill="#FDBF5E" p-id="2576"></path><path d="M340.267 16.773h-127.8c-49.522 0-89.46 39.938-89.46 89.46h217.26c23.962 0 44.73-20.769 44.73-44.73s-20.766-44.73-44.73-44.73z" fill="#F16051" p-id="2577"></path><path d="M340.267 122.208h-217.26c-9.586 0-15.976-6.39-15.976-15.976 0-57.51 47.926-105.435 105.435-105.435h127.801c33.548 0 60.706 27.158 60.706 60.705s-27.158 60.706-60.706 60.706z m-199.686-31.95h199.688c15.976 0 28.756-12.78 28.756-28.756s-12.78-28.755-28.756-28.755h-127.8c-35.146 0.002-65.498 23.964-71.888 57.511z" fill="#193651" p-id="2578"></path><path d="M79.875 662.166H385v345.061H79.875z" fill="#FFFFFF" p-id="2579"></path><path d="M384.999 1023.201H79.875c-9.586 0-15.976-6.39-15.976-15.976v-345.06c0-9.585 6.39-15.975 15.976-15.975H385c9.586 0 15.976 6.39 15.976 15.976v345.061c-0.002 9.584-6.392 15.974-15.976 15.974z m-289.15-31.95h273.174V678.14H95.85V991.25z" fill="#193651" p-id="2580"></path><path d="M144.415 725.602h177.323v217.26H144.415z" fill="#FDBF5E" p-id="2581"></path><path d="M231.638 1023.201c-9.586 0-15.976-6.39-15.976-15.976V773.991c0-9.586 6.39-15.976 15.976-15.976 9.586 0 15.976 6.39 15.976 15.976v233.236c-0.002 9.584-6.392 15.974-15.976 15.974z" fill="#193651" p-id="2582"></path><path d="M519.188 16.773H984.06V382.6H519.188z" fill="#FFFFFF" p-id="2583"></path><path d="M985.658 398.578h-466.47c-9.586 0-15.976-6.39-15.976-15.976V16.772c0-9.585 6.39-15.975 15.976-15.975H984.06c9.586 0 15.976 6.39 15.976 15.976V382.6c1.598 9.586-6.39 15.978-14.378 15.978z m-450.494-31.952h432.922V32.75H535.164v333.877z" fill="#193651" p-id="2584"></path><path d="M583.409 81.793h124.605v127.8H583.409z" fill="#CFD0D1" p-id="2585"></path><path d="M1006.426 398.578H498.42c-9.586 0-15.976-6.39-15.976-15.976 0-9.586 6.39-15.976 15.976-15.976h509.604c9.586 0 15.976 6.39 15.976 15.976-1.598 9.584-7.988 15.976-17.574 15.976zM752.424 80.674H921.76v19.17H752.424z m95.85 54.316h71.887v19.17h-71.888z m-95.85 0h71.888v19.17h-71.888z m0 55.912H921.76v19.17H752.424zM896.2 245.217h23.962v19.17h-23.962z m-51.12 0h23.962v19.17H845.08z m-52.717 0h23.962v19.17h-23.962z m-52.718 0h23.962v19.17h-23.962z m-51.12 0h23.962v19.17h-23.961z m-105.435 0h76.68v19.17h-76.68z m1.916 53.964h23.961v19.17h-23.961z m51.648 0h23.962v19.17h-23.962z m51.711 0h23.962v19.17h-23.962z m53.197 0h23.962v19.17h-23.962z m51.6 0h23.962v19.17H793.16z m51.12 0h76.679v19.17h-76.68z" fill="#193651" p-id="2586"></path><path d="M675.743 960.897H474.458v-44.73c0-28.755 22.366-51.119 51.12-51.119H626.22c28.756 0 51.12 22.366 51.12 51.12v44.73h-1.598z" fill="#2EA2DB" p-id="2587"></path><path d="M675.743 976.873H474.458c-9.586 0-15.976-6.39-15.976-15.976v-44.73c0-36.74 30.352-67.095 67.096-67.095H626.22c36.742 0 67.096 30.352 67.096 67.096v44.73c-1.598 7.987-7.988 15.975-17.574 15.975z m-185.309-31.95H659.77v-28.755c0-19.17-15.976-35.146-35.146-35.146H523.98c-19.17 0-35.146 15.976-35.146 35.146v28.756h1.6z" fill="#193651" p-id="2588"></path><path d="M517.592 778.783a57.51 57.51 0 1 0 115.019 0 57.51 57.51 0 1 0-115.019 0z" fill="#FFFFFF" p-id="2589"></path><path d="M575.102 852.268c-39.938 0-73.486-33.547-73.486-73.485s33.548-73.486 73.486-73.486c39.937 0 73.485 33.548 73.485 73.486s-31.952 73.485-73.485 73.485z m0-115.02c-22.366 0-41.536 19.17-41.536 41.535 0 22.366 19.17 41.536 41.536 41.536 22.365 0 41.535-19.17 41.535-41.536-0.002-22.366-17.574-41.536-41.535-41.536z" fill="#193651" p-id="2590"></path><path d="M952.113 960.897H749.228v-44.73c0-28.755 22.366-51.119 51.12-51.119H900.99c28.756 0 51.12 22.366 51.12 51.12v44.73z" fill="#F16051" p-id="2591"></path><path d="M952.113 976.873H749.228c-9.586 0-15.976-6.39-15.976-15.976v-44.73c0-36.74 30.352-67.095 67.096-67.095H900.99c36.742 0 67.095 30.352 67.095 67.096v44.73c0 7.987-7.988 15.975-15.973 15.975z m-186.909-31.95h169.335v-28.755c0-19.17-15.976-35.146-35.146-35.146h-99.045c-19.17 0-35.146 15.976-35.146 35.146v28.756z" fill="#193651" p-id="2592"></path><path d="M792.361 778.783a57.51 57.51 0 1 0 115.02 0 57.51 57.51 0 1 0-115.02 0z" fill="#FFFFFF" p-id="2593"></path><path d="M849.871 852.268c-39.937 0-73.485-33.547-73.485-73.485s33.548-73.486 73.485-73.486 73.486 33.548 73.486 73.486-31.95 73.485-73.486 73.485z m0-115.02c-22.366 0-41.535 19.17-41.535 41.535 0 22.366 19.17 41.536 41.535 41.536s41.536-19.17 41.536-41.536-17.574-41.536-41.536-41.536z" fill="#193651" p-id="2594"></path><path d="M654.976 652.58a57.51 57.51 0 1 0 115.02 0 57.51 57.51 0 1 0-115.02 0z" fill="#FFFFFF" p-id="2595"></path><path d="M712.486 726.065c-39.937 0-73.485-33.547-73.485-73.485s33.548-73.486 73.485-73.486c39.938 0 73.486 33.548 73.486 73.486s-31.95 73.485-73.486 73.485z m0-115.02c-22.365 0-41.535 19.169-41.535 41.535 0 22.366 19.17 41.536 41.535 41.536s41.536-19.17 41.536-41.536c0-23.962-17.574-41.536-41.536-41.536z" fill="#193651" p-id="2596"></path></svg>